<svg xmlns="http://www.w3.org/2000/svg" width="96" height="96" id="content" fill="#e28743"><switch><g><path d="M52 16v16c0 6.63 5.37 12 12 12h16c6.63 0 12-5.37 12-12V16c0-6.63-5.37-12-12-12H64c-6.63 0-12 5.37-12 12zm8 0c0-2.21 1.79-4 4-4h16c2.21 0 4 1.79 4 4v16c0 2.21-1.79 4-4 4H64c-2.21 0-4-1.79-4-4V16zM4 16v64c0 6.63 5.37 12 12 12h16c6.63 0 12-5.37 12-12V16c0-6.63-5.37-12-12-12H16C9.37 4 4 9.37 4 16zm8 0c0-2.21 1.79-4 4-4h16c2.21 0 4 1.79 4 4v64c0 2.21-1.79 4-4 4H16c-2.21 0-4-1.79-4-4V16zm40 48v16c0 6.63 5.37 12 12 12h16c6.63 0 12-5.37 12-12V64c0-6.63-5.37-12-12-12H64c-6.63 0-12 5.37-12 12zm8 0c0-2.21 1.79-4 4-4h16c2.21 0 4 1.79 4 4v16c0 2.21-1.79 4-4 4H64c-2.21 0-4-1.79-4-4V64z"></path></g></switch></svg>
